<svg xmlns="http://www.w3.org/2000/svg" viewBox="0 0 49.89 43.64"><defs><style>.cls-1{fill:#fff;}</style></defs><g id="Layer_2" data-name="Layer 2"><g id="Layer_1-2" data-name="Layer 1"><path class="cls-1" d="M49.89,20.37c-.16,1-.28,2-.49,2.92a17.17,17.17,0,0,1-2,5.07,5,5,0,0,0-2.61-4.95,4.93,4.93,0,0,0-5.37.26,18.13,18.13,0,0,0-.58-2.55,4.83,4.83,0,0,0-5.09-3c-.17,0-.36.23-.46.4q-4.11,7.08-8.19,14.16L23.6,35.35a20.48,20.48,0,0,1,10.66,8.29H0c.19-.28.35-.53.53-.77A20.11,20.11,0,0,1,14,34.51a17.79,17.79,0,0,1,5.87,0,.71.71,0,0,0,.85-.4Q25.65,25.55,30.59,17a.79.79,0,0,0,0-.85,5,5,0,0,0-7.07-2.05l-.43.26a5.12,5.12,0,0,0-8-4.77A18,18,0,0,1,25.63,1.26a18.7,18.7,0,0,1,13.49.93c.31-.5.59-1,.9-1.49A1.46,1.46,0,0,1,41.58,0,1.37,1.37,0,0,1,42.8,1.2a2.4,2.4,0,0,1-.2,1.2,10.34,10.34,0,0,1-.74,1.33c.64.53,1.28,1,1.88,1.57a18.14,18.14,0,0,1,5.55,9.25c.24,1,.34,2,.51,3,0,.14.06.28.09.42Z"/></g></g></svg>