<svg xmlns="http://www.w3.org/2000/svg" viewBox="0 0 39.46 43.41"><defs><style>.cls-1{fill:#fff;}</style></defs><g id="Layer_2" data-name="Layer 2"><g id="Layer_1-2" data-name="Layer 1"><path class="cls-1" d="M11.85,31.59c-.39.38-.76.77-1.16,1.13A11,11,0,0,1,6.81,35a8.78,8.78,0,0,1-2.87.48.12.12,0,0,1-.14-.11C3,32.65,2.25,29.9,1.47,27.15,1,25.51.54,23.87.08,22.23a2,2,0,0,1,1.26-2.4L3.8,19a.17.17,0,0,0,.14-.2c0-3,0-5.94,0-8.91a4,4,0,0,1,4-4H13.8V0H25.64V5.91h5.84a3.89,3.89,0,0,1,3.33,1.7,4,4,0,0,1,.71,2.33c0,3,0,5.93,0,8.89a.18.18,0,0,0,.14.2c.83.26,1.65.53,2.47.81a2,2,0,0,1,1.27,2.38q-1.87,6.59-3.73,13.17a.14.14,0,0,1-.16.12,9.13,9.13,0,0,1-4.28-1.09,12.1,12.1,0,0,1-3.48-2.72l-.11-.13c-.23.24-.45.48-.68.71a11.9,11.9,0,0,1-3.55,2.44,8.93,8.93,0,0,1-4.47.75A9.44,9.44,0,0,1,15,34.21,12.08,12.08,0,0,1,12,31.69ZM31.56,9.87H7.89v7.81l.87-.29,10.86-3.55a.38.38,0,0,1,.21,0l1.56.51L31,17.49l.57.19Z"/><path class="cls-1" d="M0,43.41V39.46H4.09a13,13,0,0,0,4.27-.8,14.46,14.46,0,0,0,3.38-1.75.14.14,0,0,1,.19,0,13.89,13.89,0,0,0,4.46,2,13.13,13.13,0,0,0,4.19.4,13.69,13.69,0,0,0,6.92-2.43.18.18,0,0,1,.24,0A14.41,14.41,0,0,0,32.23,39a12.66,12.66,0,0,0,3.29.44h3.93V43.4H35.37a16.51,16.51,0,0,1-6.2-1.26c-.49-.2-1-.43-1.45-.65a.18.18,0,0,0-.2,0,17.3,17.3,0,0,1-5.26,1.68,17.05,17.05,0,0,1-3.91.13,17.32,17.32,0,0,1-5.79-1.5l-.63-.31a.17.17,0,0,0-.19,0,18.55,18.55,0,0,1-3.48,1.34,17.28,17.28,0,0,1-4.36.58H0Z"/></g></g></svg>