<svg xmlns="http://www.w3.org/2000/svg" viewBox="0 0 45.15 43.34"><defs><style>.cls-1{fill:#fff;}</style></defs><g id="Layer_2" data-name="Layer 2"><g id="Layer_1-2" data-name="Layer 1"><path class="cls-1" d="M45.15,29.62C44.72,31,43.68,31.15,42.44,31a12.84,12.84,0,0,1-4.71,9.44,12.31,12.31,0,0,1-8.08,2.89,12.42,12.42,0,0,1-8.88-3.56,12.83,12.83,0,0,1-4-8.74H14.22c.67-.81,1.33-1.58,2-2.37l2.22-2.74c.57-.71,1.15-.7,1.73,0l3.57,4.36a9.72,9.72,0,0,0,.72.72H21.83a7.83,7.83,0,0,0,8,7.35,7.74,7.74,0,0,0,7.6-7.29l-1.68-.17v-.13l.28-.25a10.86,10.86,0,0,0,4.33-8.8c0-2.44,0-4.88,0-7.32a4.14,4.14,0,0,0-2.56-4,.58.58,0,0,1-.26-.42c0-2.72,0-5.43,0-8.15A1.76,1.76,0,0,1,39.28,0c.39,0,.79,0,1.19,0a1.8,1.8,0,0,1,2,2V23.3c1.21-.11,2.27.07,2.71,1.38Z"/><path class="cls-1" d="M19.33,11.82H35.9a2.38,2.38,0,0,1,2.48,1.65,3.31,3.31,0,0,1,.15,1q0,3.57,0,7.14a9.22,9.22,0,0,1-7.72,9.25,6,6,0,0,1-6.28-2.33c-1-1.27-2-2.52-3.05-3.77a2.68,2.68,0,0,0-4.43,0c-1,1.24-2,2.47-3,3.73A6.08,6.08,0,0,1,7.76,30.9a9.19,9.19,0,0,1-7.73-9c0-2.56,0-5.12,0-7.67a2.42,2.42,0,0,1,2.61-2.45h16.7Z"/><path class="cls-1" d="M9.31,10c.42-.78.78-1.54,1.22-2.24a1.83,1.83,0,0,1,1.71-.71H24.7c.72,0,1.44,0,2.16,0a1.46,1.46,0,0,1,1.23.74c.4.69.76,1.41,1.16,2.17Z"/></g></g></svg>