<svg xmlns="http://www.w3.org/2000/svg" viewBox="0 0 56.49 31.04"><defs><style>.cls-1{fill:#fff;}</style></defs><g id="Layer_2" data-name="Layer 2"><g id="Layer_1-2" data-name="Layer 1"><path class="cls-1" d="M8,15.45C8,11.59,8,7.73,8,3.87a3.76,3.76,0,1,1,7.52,0c0,7.74,0,15.49,0,23.23A3.76,3.76,0,1,1,8,27C8,23.17,8,19.31,8,15.45Z"/><path class="cls-1" d="M48.47,15.57c0,3.86,0,7.72,0,11.58a3.75,3.75,0,0,1-5,3.66,3.84,3.84,0,0,1-2.5-3.94c0-5.48,0-11,0-16.45,0-2.13,0-4.27,0-6.4a3.77,3.77,0,1,1,7.53,0C48.48,7.85,48.47,11.71,48.47,15.57Z"/><path class="cls-1" d="M17.43,19.22v-7c0-.12,0-.24,0-.4H39v7.4Z"/><path class="cls-1" d="M2.74,10.28C3.21,7.36,4.13,6.2,6.1,6V25C4.27,25,3.39,23.87,2.73,20.8.84,21.11,0,20.39,0,18.44s0-4,0-6C0,10.67,1,9.89,2.74,10.28Z"/><path class="cls-1" d="M50.4,6c2,.25,2.8,1.3,3.35,4.25,2-.26,2.74.43,2.74,2.43s0,4,0,6c0,1.69-1,2.48-2.78,2.07,0,2.23-.9,3.84-3.3,4.36Z"/></g></g></svg>