<svg xmlns="http://www.w3.org/2000/svg" viewBox="0 0 53.36 43.3"><defs><style>.cls-1{fill:#fff;}</style></defs><g id="Layer_2" data-name="Layer 2"><g id="Layer_1-2" data-name="Layer 1"><path class="cls-1" d="M53.36,38.56a2.1,2.1,0,0,1-1,1.18,29.75,29.75,0,0,1-5.46,3,8.11,8.11,0,0,1-1.67.46,3.43,3.43,0,0,1-2.41-.57c-.86-.52-1.67-1.12-2.51-1.67-.5-.33-1-.66-1.52-1a2.05,2.05,0,0,0-2.31,0c-.76.48-1.48,1-2.23,1.49s-1.37.93-2.09,1.33a3.25,3.25,0,0,1-3.14.05c-.75-.37-1.46-.83-2.17-1.27s-1.54-1-2.31-1.5l-.14-.08a2,2,0,0,0-2.23,0c-.8.48-1.58,1-2.38,1.46s-1.47.9-2.24,1.29a3.87,3.87,0,0,1-3.88-.15c-.87-.51-1.67-1.14-2.51-1.71L9.7,40a1,1,0,0,0-1-.1c-.79.32-1.61.62-2.37,1C5,41.54,3.78,42.29,2.51,43a1.47,1.47,0,0,1-2.08-.48,1.41,1.41,0,0,1,.4-1.91A34.58,34.58,0,0,1,7.5,37.16a4.19,4.19,0,0,1,4,.46c.78.53,1.52,1.1,2.28,1.63.44.31.89.6,1.34.88a1.12,1.12,0,0,0,1.22,0c.73-.42,1.46-.86,2.19-1.3s1.63-1,2.48-1.48a4.62,4.62,0,0,1,4.72.08c.93.53,1.82,1.15,2.73,1.73l1.59,1a.86.86,0,0,0,1,0c.68-.47,1.36-.95,2.06-1.41s1.6-1.06,2.45-1.5a4.61,4.61,0,0,1,4.2,0,19.15,19.15,0,0,1,3.07,1.94c.48.34,1,.64,1.46,1a1.08,1.08,0,0,0,1.13.09c.92-.43,1.85-.83,2.74-1.32a31.2,31.2,0,0,0,2.76-1.73,1.49,1.49,0,0,1,2.4.82s0,0,0,0Z"/><path class="cls-1" d="M16.62,12.32H29.41v-4A8.29,8.29,0,0,1,35.66.06a1.92,1.92,0,1,1,1,3.72,4.29,4.29,0,0,0-3.27,3.54,6.19,6.19,0,0,0-.09,1.14V29.11a1.93,1.93,0,1,1-3.86.08c0-1.32,0-2.63,0-4v-.31H16.61v.31c0,1.42,0,2.84,0,4.25a1.9,1.9,0,0,1-1.28,1.81,1.94,1.94,0,0,1-2.58-1.83V26.69q0-9,0-18A8.53,8.53,0,0,1,13.91,4.1a8.19,8.19,0,0,1,5-3.77,1.91,1.91,0,0,1,2.14.74A1.92,1.92,0,0,1,20,4a4.37,4.37,0,0,0-3.36,4.23c0,1.3,0,2.6,0,3.9A1.25,1.25,0,0,0,16.62,12.32Zm0,8.73H29.39V16.2H16.61Z"/><path class="cls-1" d="M44.7,36.77a4,4,0,0,1-2.14-.63c-.85-.54-1.66-1.14-2.5-1.69-.58-.37-1.18-.74-1.79-1.07a1.67,1.67,0,0,0-1.62,0c-.57.31-1.12.64-1.66,1-.71.47-1.38,1-2.11,1.48a8.28,8.28,0,0,1-1.76.82,3.18,3.18,0,0,1-2.6-.39c-.91-.52-1.77-1.12-2.66-1.68l-1.61-1a2,2,0,0,0-2.31,0c-.71.43-1.41.88-2.13,1.31s-1.64,1-2.49,1.43a3.77,3.77,0,0,1-3.8-.13c-1-.58-1.85-1.27-2.78-1.9q-.64-.45-1.32-.87a.94.94,0,0,0-.86-.1,18.58,18.58,0,0,0-1.91.77c-1.45.76-2.87,1.58-4.3,2.38a1.63,1.63,0,0,1-1.19.25A1.4,1.4,0,0,1,0,35.57a1.34,1.34,0,0,1,.59-1.45,33.62,33.62,0,0,1,6.77-3.49,4,4,0,0,1,3.7.39c.84.54,1.63,1.15,2.45,1.72.46.32.93.62,1.41.92a1.07,1.07,0,0,0,1.14,0c.57-.31,1.14-.63,1.69-1,1-.61,2-1.27,3.08-1.85a4.43,4.43,0,0,1,2.4-.58,4.84,4.84,0,0,1,2.29.7c1,.57,1.91,1.21,2.87,1.82.47.3.95.59,1.43.88a.83.83,0,0,0,1,0l1.5-1C33.19,32.1,34,31.48,35,31a4.81,4.81,0,0,1,5.12.05c.93.55,1.81,1.2,2.72,1.8.46.3.92.6,1.39.89a.91.91,0,0,0,.86.09c.77-.33,1.55-.63,2.28-1,1.18-.67,2.32-1.41,3.48-2.13a1.48,1.48,0,0,1,1.49-.14,1.43,1.43,0,0,1,.32,2.43,25.47,25.47,0,0,1-6.74,3.66,7,7,0,0,1-.82.18A2.37,2.37,0,0,1,44.7,36.77Z"/></g></g></svg>