<svg xmlns="http://www.w3.org/2000/svg" viewBox="0 0 248.98 68.74"><defs><style>.cls-1{font-size:43.81px;letter-spacing:0.1em;}.cls-1,.cls-3,.cls-5{fill:#f8f7f7;}.cls-1,.cls-3{font-family:Century751BT-RomanNo2B, Century751 No2 BT;}.cls-2{fill:none;stroke:#f8f7f7;stroke-miterlimit:10;stroke-width:0.5px;}.cls-3{font-size:13.87px;letter-spacing:0.1em;}.cls-4{letter-spacing:0.05em;}</style></defs><g id="Layer_2" data-name="Layer 2"><g id="Layer_1-2" data-name="Layer 1"><text class="cls-1" transform="translate(0 37.63)">SUPREME</text><line class="cls-2" x1="59.94" y1="50.51" x2="3.55" y2="50.51"/><line class="cls-2" x1="242.59" y1="50.51" x2="190.37" y2="50.51"/><text class="cls-3" transform="translate(70.91 54.83)">HOTEL &amp; S<tspan class="cls-4" x="88.03" y="0">P</tspan><tspan x="97.1" y="0">A</tspan></text><polygon class="cls-5" points="97.11 59.26 98.65 62.38 102.09 62.88 99.6 65.31 100.19 68.74 97.11 67.12 94.03 68.74 94.61 65.31 92.12 62.88 95.57 62.38 97.11 59.26"/><polygon class="cls-5" points="110.8 59.26 112.34 62.38 115.78 62.88 113.29 65.31 113.88 68.74 110.8 67.12 107.72 68.74 108.31 65.31 105.81 62.88 109.26 62.38 110.8 59.26"/><polygon class="cls-5" points="124.49 59.26 126.03 62.38 129.48 62.88 126.98 65.31 127.57 68.74 124.49 67.12 121.41 68.74 122 65.31 119.51 62.88 122.95 62.38 124.49 59.26"/><polygon class="cls-5" points="138.18 59.26 139.72 62.38 143.17 62.88 140.68 65.31 141.26 68.74 138.18 67.12 135.1 68.74 135.69 65.31 133.2 62.88 136.64 62.38 138.18 59.26"/><polygon class="cls-5" points="151.88 59.26 153.42 62.38 156.86 62.88 154.37 65.31 154.96 68.74 151.88 67.12 148.79 68.74 149.38 65.31 146.89 62.88 150.34 62.38 151.88 59.26"/></g></g></svg>