<svg xmlns="http://www.w3.org/2000/svg" viewBox="0 0 44.47 43.3"><defs><style>.cls-1{fill:#fff;}</style></defs><g id="Layer_2" data-name="Layer 2"><g id="Layer_1-2" data-name="Layer 1"><path class="cls-1" d="M44.42,17.74A2.78,2.78,0,0,0,43,15.79a23.84,23.84,0,0,0-4.84-2.16,14.81,14.81,0,0,0-4.11-.74,9.75,9.75,0,0,0-3.64.53l-.17,0c0-.09,0-.16,0-.22a9.17,9.17,0,0,0,0-3.22,12.28,12.28,0,0,0-1.58-4A21.71,21.71,0,0,0,24.2.73a3,3,0,0,0-4,0A23.35,23.35,0,0,0,16.49,4.9a13.57,13.57,0,0,0-2.14,4.47,8.9,8.9,0,0,0-.25,3.25c0,.28.07.56.11.85l-.47-.15A10.75,10.75,0,0,0,9,13a17.6,17.6,0,0,0-4.15,1.13,23.6,23.6,0,0,0-3.46,1.7A2.7,2.7,0,0,0,.3,19.44,22.84,22.84,0,0,0,1.72,22,16.09,16.09,0,0,0,5.38,26,9.73,9.73,0,0,0,9,27.78l.31.08,0,.05L9.16,28a9.16,9.16,0,0,0-2.35,3.61,15.32,15.32,0,0,0-.87,4.93,25.25,25.25,0,0,0,.24,4A3.16,3.16,0,0,0,7,42.36a3,3,0,0,0,2.28.94,24.82,24.82,0,0,0,4-.34,15.89,15.89,0,0,0,4.41-1.36,9.19,9.19,0,0,0,4.42-4.26l.08-.13.08.15c.17.3.33.61.52.91A9.38,9.38,0,0,0,27,41.74,15.51,15.51,0,0,0,31.29,43c.9.13,1.81.21,2.71.28a9.65,9.65,0,0,0,1.52,0,3,3,0,0,0,2.72-2.47,19.84,19.84,0,0,0,.28-3.35c0-.82-.05-1.64-.11-2.47a12.2,12.2,0,0,0-.56-2.8A9.24,9.24,0,0,0,35.27,28a.35.35,0,0,1-.06-.09l.1,0c.3-.09.61-.16.9-.26a11,11,0,0,0,4.11-2.63,19.74,19.74,0,0,0,3.9-5.62A2.46,2.46,0,0,0,44.42,17.74Z"/></g></g></svg>