<svg xmlns="http://www.w3.org/2000/svg" viewBox="0 0 32.17 43.98"><defs><style>.cls-1{fill:#fff;}</style></defs><g id="Layer_2" data-name="Layer 2"><g id="Layer_1-2" data-name="Layer 1"><path class="cls-1" d="M16.76,0A5.63,5.63,0,0,1,19.2,1.16,4.56,4.56,0,1,1,15.4.08L15.73,0Z"/><path class="cls-1" d="M22.65,44H9.43L7.13,22.79H24.94C24.18,29.85,23.42,36.9,22.65,44Z"/><path class="cls-1" d="M26,21.8h-20L6.49,26H2c-.18,0-.35,0-.41-.24q-.79-3.5-1.61-7a.51.51,0,0,1,0-.18H32.17c-.24,1.08-.48,2.12-.72,3.16-.31,1.31-.61,2.62-.93,3.92,0,.13-.2.31-.3.31H25.71s-.05,0-.11-.06Z"/><path class="cls-1" d="M25.16,17.68h-18s-.06,0-.06-.06a28.5,28.5,0,0,1-.22-3.68,3.63,3.63,0,0,1,2.71-3.26,8.45,8.45,0,0,1,3.12-.46c.25,0,.31.13.36.33.3,1.14.59,2.29.93,3.43a16.33,16.33,0,0,0,.64,1.58l.12,0a25.13,25.13,0,0,0,.42-3,6.83,6.83,0,0,0-.45-1.82c0-.15-.08-.29-.12-.47h2.92a14.1,14.1,0,0,0-.49,2.61,10,10,0,0,0,.5,2.68,13.47,13.47,0,0,0,.57-1.36c.36-1.2.67-2.42,1-3.63,0-.13.19-.32.29-.32a7,7,0,0,1,4.31,1,3.51,3.51,0,0,1,1.62,3.14C25.38,15.48,25.24,16.56,25.16,17.68Z"/></g></g></svg>