<svg xmlns="http://www.w3.org/2000/svg" viewBox="0 0 62.59 34.81"><defs><style>.cls-1{fill:#fff;}</style></defs><g id="Layer_2" data-name="Layer 2"><g id="Layer_1-2" data-name="Layer 1"><path class="cls-1" d="M28.51,14.49c-.93-2.1-1.8-4.12-2.73-6.12-.49-1.06-1.28-1.32-2.47-.88-3.95,1.48-7.89,3-11.85,4.43a7.12,7.12,0,0,1-2.58.45,1.32,1.32,0,0,1-1.1-2.22A5.9,5.9,0,0,1,9.65,8.5C14.71,5.78,19.8,3.12,24.9.48A2.78,2.78,0,0,1,29,1.57c2.74,4.29,5.43,8.6,8.14,12.91.7,1.11,1.45,2.2,2.11,3.34a6.43,6.43,0,0,1,.62,1.72c.11.43-.17.72-.61.74-4.79.21-9.25,1.91-13.83,3a31.55,31.55,0,0,1-8.56,1.41A4.37,4.37,0,0,1,14,23.83l1.34-.22v-.07H13.76l0-.12Z"/><path class="cls-1" d="M62.59,31.18c-2-.24-3.85-.5-5.71-.67a80.77,80.77,0,0,0-14.08-.29,30.73,30.73,0,0,0-7.75,2,44.57,44.57,0,0,1-17.87,2.51A20,20,0,0,1,1.07,25.87C.7,25.35.4,24.78,0,24.11a2,2,0,0,1,.31.13A29.47,29.47,0,0,0,12.07,29a38,38,0,0,0,16-.55c3.74-.89,7.48-1.83,11.22-2.71,8.37-2,15.92-.16,22.73,5Z"/><path class="cls-1" d="M41.67,10.74a6.82,6.82,0,1,1,6.84,6.83A6.84,6.84,0,0,1,41.67,10.74Z"/></g></g></svg>